<?xml version="1.0" standalone="no"?>
<!DOCTYPE svg PUBLIC "-//W3C//DTD SVG 20010904//EN"
 "http://www.w3.org/TR/2001/REC-SVG-20010904/DTD/svg10.dtd">
<svg version="1.0" xmlns="http://www.w3.org/2000/svg"
 width="768.000000pt" height="766.000000pt" viewBox="0 0 768.000000 766.000000"
 preserveAspectRatio="xMidYMid meet">

<g transform="translate(0.000000,766.000000) scale(0.100000,-0.100000)"
fill="#000000" stroke="none">
<path d="M1991 5946 c-8 -10 -10 -601 -9 -2237 l3 -2224 548 -5 c340 -3 552
-1 558 5 5 5 9 311 9 792 l0 783 25 6 c46 12 1036 -2 1100 -16 139 -28 222
-65 288 -128 110 -105 137 -250 137 -742 0 -173 4 -365 10 -427 8 -100 36
-227 58 -260 6 -10 135 -13 556 -13 302 -1 551 1 554 4 3 3 -7 47 -22 97 -38
127 -45 248 -46 769 -1 582 -12 673 -112 862 -58 110 -160 205 -290 270 -94
47 -212 88 -253 88 -25 0 -78 37 -70 50 3 5 38 18 78 31 384 117 676 470 728
879 19 150 5 391 -29 535 -47 192 -112 318 -239 466 -66 76 -113 117 -214 182
-179 117 -371 183 -659 227 -131 20 -172 20 -1416 20 -1066 0 -1283 -2 -1293
-14z m2289 -916 c318 -58 476 -301 416 -641 -22 -124 -74 -220 -167 -311 -73
-71 -189 -108 -394 -128 -116 -11 -992 -14 -1019 -4 -14 6 -16 63 -16 549 0
352 4 545 10 547 24 8 1121 -3 1170 -12z"/>
</g>
</svg>
